<svg width="291" height="194" viewBox="0 0 291 194" fill="none" xmlns="http://www.w3.org/2000/svg">
<path d="M69.5 141.981C76.4036 141.981 82 136.384 82 129.481C82 122.577 76.4036 116.981 69.5 116.981C62.5964 116.981 57 122.577 57 129.481C57 136.384 62.5964 141.981 69.5 141.981Z" fill="#17A2B8"/>
<path d="M46.0688 136.819L51.2445 141.995C47.9079 145.332 43.8796 147 39.1596 147C34.4395 147 30.4112 145.332 27.0746 141.995C23.738 138.659 22.0697 134.63 22.0697 129.91C22.0697 125.19 23.738 121.162 27.0746 117.825C30.4112 114.489 34.4395 112.82 39.1596 112.82C43.8796 112.82 47.9079 114.489 51.2445 117.825L46.0688 123.001C44.1645 121.097 41.8614 120.145 39.1596 120.145C36.4578 120.145 34.1547 121.097 32.2504 123.001C30.3461 124.905 29.394 127.208 29.394 129.91C29.394 132.612 30.3461 134.915 32.2504 136.819C34.1547 138.724 36.4578 139.676 39.1596 139.676C41.8614 139.676 44.1645 138.724 46.0688 136.819ZM68.6518 112.82C73.3718 112.82 77.4001 114.489 80.7367 117.825C84.0733 121.162 85.7416 125.19 85.7416 129.91C85.7416 134.63 84.0733 138.659 80.7367 141.995C77.4001 145.332 73.3718 147 68.6518 147C63.9317 147 59.9034 145.332 56.5668 141.995C53.2302 138.659 51.5619 134.63 51.5619 129.91C51.5619 125.19 53.2302 121.162 56.5668 117.825C59.9034 114.489 63.9317 112.82 68.6518 112.82ZM68.6518 120.145C65.9499 120.145 63.6469 121.097 61.7426 123.001C59.8383 124.905 58.8861 127.208 58.8861 129.91C58.8861 132.612 59.8383 134.915 61.7426 136.819C63.6469 138.724 65.9499 139.676 68.6518 139.676C71.3536 139.676 73.6566 138.724 75.5609 136.819C77.4652 134.915 78.4174 132.612 78.4174 129.91C78.4174 127.208 77.4652 124.905 75.5609 123.001C73.6566 121.097 71.3536 120.145 68.6518 120.145ZM102.831 112.82C107.503 112.853 111.49 114.521 114.794 117.825C118.131 121.162 119.799 125.19 119.799 129.91C119.799 134.63 118.131 138.659 114.794 141.995C111.49 145.299 107.503 146.967 102.831 147H90.6244V112.82H102.831ZM102.831 139.676C105.484 139.643 107.747 138.691 109.619 136.819C111.523 134.915 112.475 132.612 112.475 129.91C112.475 127.208 111.523 124.905 109.619 123.001C107.747 121.129 105.484 120.177 102.831 120.145H97.9486V139.676H102.831ZM151.66 112.82V120.145H132.128V126.248H146.777V133.572H132.128V139.676H151.66V147H124.804V112.82H151.66ZM156.542 112.82H163.867V139.676H183.398V147H156.542V112.82ZM195.605 112.82V147H188.281V112.82H195.605ZM207.812 127.859V147H200.488V112.723L224.902 131.961V112.82H232.226V147.098L207.812 127.859ZM263.964 112.82V120.145H244.433V126.248H259.081V133.572H244.433V139.676H263.964V147H237.109V112.82H263.964Z" fill="black"/>
<path d="M88.6134 167.641V184.731H84.9512V167.641H88.6134ZM94.7169 175.161V184.731H91.0548V167.592L103.262 177.211V167.641H106.924V184.78L94.7169 175.161ZM122.793 167.641V171.303H113.027V174.355H122.793V178.017H113.027V184.731H109.365V167.641H122.793ZM133.779 167.641C136.139 167.641 138.154 168.475 139.822 170.144C141.49 171.812 142.324 173.826 142.324 176.186C142.324 178.546 141.49 180.56 139.822 182.229C138.154 183.897 136.139 184.731 133.779 184.731C131.419 184.731 129.405 183.897 127.737 182.229C126.069 180.56 125.234 178.546 125.234 176.186C125.234 173.826 126.069 171.812 127.737 170.144C129.405 168.475 131.419 167.641 133.779 167.641ZM133.779 171.303C132.428 171.303 131.277 171.779 130.325 172.731C129.373 173.684 128.897 174.835 128.897 176.186C128.897 177.537 129.373 178.688 130.325 179.641C131.277 180.593 132.428 181.069 133.779 181.069C135.13 181.069 136.282 180.593 137.234 179.641C138.186 178.688 138.662 177.537 138.662 176.186C138.662 174.835 138.186 173.684 137.234 172.731C136.282 171.779 135.13 171.303 133.779 171.303ZM151.992 171.303V184.731H148.33V171.303H143.447V167.641H156.875V171.303H151.992ZM172.744 167.641V171.303H162.979V174.355H170.303V178.017H162.979V181.069H172.744V184.731H159.316V167.641H172.744ZM187.185 179.641L189.773 182.229C188.105 183.897 186.091 184.731 183.731 184.731C181.371 184.731 179.356 183.897 177.688 182.229C176.02 180.56 175.186 178.546 175.186 176.186C175.186 173.826 176.02 171.812 177.688 170.144C179.356 168.475 181.371 167.641 183.731 167.641C186.091 167.641 188.105 168.475 189.773 170.144L187.185 172.731C186.233 171.779 185.081 171.303 183.731 171.303C182.38 171.303 181.228 171.779 180.276 172.731C179.324 173.684 178.848 174.835 178.848 176.186C178.848 177.537 179.324 178.688 180.276 179.641C181.228 180.593 182.38 181.069 183.731 181.069C185.081 181.069 186.233 180.593 187.185 179.641ZM195.938 178.017V184.731H192.275V167.641H195.938V174.355H204.482V167.641H208.145V184.731H204.482V178.017H195.938Z" fill="black"/>
<path d="M227.221 177.284H271.977" stroke="black" stroke-width="3" stroke-linecap="round"/>
<path d="M224.103 173.455C226.285 173.455 228.053 175.174 228.053 177.295C228.053 179.416 226.285 181.135 224.103 181.135C221.922 181.135 220.154 179.416 220.154 177.295C220.154 175.174 221.922 173.455 224.103 173.455Z" fill="black"/>
<path d="M66.4774 176.832L19.3653 176.832" stroke="black" stroke-width="3" stroke-linecap="round"/>
<path d="M69.312 180.661C67.1307 180.661 65.3625 178.941 65.3625 176.821C65.3625 174.7 67.1307 172.981 69.312 172.981C71.4933 172.981 73.2615 174.7 73.2615 176.821C73.2615 178.941 71.4933 180.661 69.312 180.661Z" fill="black"/>
<path d="M176.829 0V29.8399H143.717L133.95 0H176.829Z" fill="#232C42"/>
<path d="M114 0C114 0 127.784 0.175494 135.436 12.3836C138.049 16.6234 139.418 21.512 139.386 26.492V29.8393H147.552V27.0221C147.566 23.5079 147.224 20.0012 146.532 16.5557C145.34 10.7843 141.992 2.84427 137.426 0H114Z" fill="#24425F"/>
<path d="M114 0V65.289C114 66.1008 114.082 66.9106 114.245 67.7061C115.192 72.3583 119.453 86.7815 136.075 89H171.836V64.2757H139.386V26.1615C139.416 21.102 137.967 16.1441 135.218 11.8966C131.715 6.55605 125.367 0.973435 114 0Z" fill="#17A2B8"/>
</svg>
